<svg width="11" height="11" viewBox="0 0 11 11" fill="none" xmlns="http://www.w3.org/2000/svg">
<path fill-rule="evenodd" clip-rule="evenodd" d="M9.625 0.6875H1.375C1.19266 0.6875 1.0178 0.759933 0.888864 0.888864C0.759933 1.0178 0.6875 1.19266 0.6875 1.375V9.625C0.6875 9.80734 0.759933 9.9822 0.888864 10.1111C1.0178 10.2401 1.19266 10.3125 1.375 10.3125H9.625C9.80734 10.3125 9.9822 10.2401 10.1111 10.1111C10.2401 9.9822 10.3125 9.80734 10.3125 9.625V1.375C10.3125 1.19266 10.2401 1.0178 10.1111 0.888864C9.9822 0.759933 9.80734 0.6875 9.625 0.6875ZM1.375 0C1.01033 0 0.660591 0.144866 0.402728 0.402728C0.144866 0.660591 0 1.01033 0 1.375L0 9.625C0 9.98967 0.144866 10.3394 0.402728 10.5973C0.660591 10.8551 1.01033 11 1.375 11H9.625C9.98967 11 10.3394 10.8551 10.5973 10.5973C10.8551 10.3394 11 9.98967 11 9.625V1.375C11 1.01033 10.8551 0.660591 10.5973 0.402728C10.3394 0.144866 9.98967 0 9.625 0L1.375 0Z" fill="#0C1826"/>
<path fill-rule="evenodd" clip-rule="evenodd" d="M4.125 7.90625C4.125 7.81508 4.16122 7.72765 4.22568 7.66318C4.29015 7.59872 4.37758 7.5625 4.46875 7.5625H6.53125C6.62242 7.5625 6.70985 7.59872 6.77432 7.66318C6.83878 7.72765 6.875 7.81508 6.875 7.90625C6.875 7.99742 6.83878 8.08485 6.77432 8.14932C6.70985 8.21378 6.62242 8.25 6.53125 8.25H4.46875C4.37758 8.25 4.29015 8.21378 4.22568 8.14932C4.16122 8.08485 4.125 7.99742 4.125 7.90625ZM2.75 5.84375C2.75 5.75258 2.78622 5.66515 2.85068 5.60068C2.91515 5.53622 3.00258 5.5 3.09375 5.5H7.90625C7.99742 5.5 8.08485 5.53622 8.14932 5.60068C8.21378 5.66515 8.25 5.75258 8.25 5.84375C8.25 5.93492 8.21378 6.02235 8.14932 6.08682C8.08485 6.15128 7.99742 6.1875 7.90625 6.1875H3.09375C3.00258 6.1875 2.91515 6.15128 2.85068 6.08682C2.78622 6.02235 2.75 5.93492 2.75 5.84375ZM1.375 3.78125C1.375 3.69008 1.41122 3.60265 1.47568 3.53818C1.54015 3.47372 1.62758 3.4375 1.71875 3.4375H9.28125C9.37242 3.4375 9.45985 3.47372 9.52432 3.53818C9.58878 3.60265 9.625 3.69008 9.625 3.78125C9.625 3.87242 9.58878 3.95985 9.52432 4.02432C9.45985 4.08878 9.37242 4.125 9.28125 4.125H1.71875C1.62758 4.125 1.54015 4.08878 1.47568 4.02432C1.41122 3.95985 1.375 3.87242 1.375 3.78125Z" fill="#0C1826"/>
</svg>
