<svg width="147" height="47" viewBox="0 0 147 47" fill="none" xmlns="http://www.w3.org/2000/svg">
<g clip-path="url(#clip0)">
<path d="M72.3807 30.3168C72.3807 37.8832 66.7556 42.7972 60.2781 42.7972C57.3377 42.7972 53.8007 41.5224 52.1174 38.9935V42.1804H46.0234V5.58203H52.1174V21.6195C53.8007 19.0905 57.2311 17.8569 60.3207 17.8569C66.8195 17.8774 72.3807 22.6887 72.3807 30.3168ZM66.2868 30.2551C66.2868 26.2868 63.1333 23.3466 59.3406 23.3466C55.8249 23.3466 52.2452 26.0812 52.2452 30.2551C52.2452 34.4084 55.6118 37.3075 59.3406 37.3075C63.1333 37.3075 66.2868 34.2233 66.2868 30.2551Z" fill="#0C1826"/>
<path d="M78.1758 42.1804V5.58203H84.2697V42.1804H78.1758Z" fill="#0C1826"/>
<path d="M90.5996 10.105C90.5996 8.02834 92.432 6.50684 94.6054 6.50684C96.8214 6.50684 98.5473 8.02834 98.5473 10.105C98.5473 12.1405 96.8214 13.7031 94.6054 13.7031C92.432 13.7031 90.5996 12.1405 90.5996 10.105ZM91.5371 42.18V18.4733H97.631V42.18H91.5371Z" fill="#0C1826"/>
<path d="M103.213 34.8809H108.945C108.945 36.5052 110.415 38.0267 112.993 38.0267C115.422 38.0267 116.999 36.8547 116.999 35.3332C116.999 34.0173 115.955 33.4005 114.101 32.9893L110.841 32.1668C105.322 30.7481 103.895 27.9107 103.895 24.9088C103.895 21.2079 107.687 17.8564 113.057 17.8564C117.425 17.8564 122.368 19.9948 122.326 25.2789H116.487C116.487 23.6546 114.953 22.6471 113.227 22.6471C111.331 22.6471 110.01 23.7163 110.01 25.1761C110.01 26.3892 111.224 27.1088 112.631 27.4173L116.573 28.4247C122.091 29.8023 123.093 33.1537 123.093 35.3332C123.093 40.165 118.085 42.7968 113.1 42.7968C108.22 42.7968 103.319 39.9594 103.213 34.8809Z" fill="#0C1826"/>
<path d="M127.1 34.8809H132.831C132.831 36.5052 134.302 38.0267 136.88 38.0267C139.309 38.0267 140.886 36.8547 140.886 35.3332C140.886 34.0173 139.841 33.4005 137.988 32.9893L134.728 32.1668C129.209 30.7481 127.781 27.9107 127.781 24.9088C127.781 21.2079 131.574 17.8564 136.944 17.8564C141.312 17.8564 146.255 19.9948 146.212 25.2789H140.374C140.374 23.6546 138.84 22.6471 137.114 22.6471C135.218 22.6471 133.897 23.7163 133.897 25.1761C133.897 26.3892 135.111 27.1088 136.518 27.4173L140.459 28.4247C145.978 29.8023 146.979 33.1537 146.979 35.3332C146.979 40.165 141.972 42.7968 136.986 42.7968C132.107 42.7968 127.206 39.9594 127.1 34.8809Z" fill="#0C1826"/>
<path d="M23.0973 20.2422C24.674 20.2422 26.9113 17.8983 26.9113 13.3749C26.9113 13.3749 27.1244 5.84961 16.9394 5.84961H9.75881H2.98304V10.188H6.79707V35.7246C5.71039 35.2722 4.70894 34.676 3.85665 33.9358L0 38.6853C3.17481 41.0087 7.77721 42.5508 12.2305 42.5508C21.6057 42.5508 29.6813 38.0068 29.6813 29.8236C29.6813 22.9151 24.3757 20.2422 23.0973 20.2422ZM13.3171 10.9076C14.0416 10.8048 14.7234 10.702 15.4479 10.702C17.4508 10.702 19.4111 11.2571 20.2208 12.8197C20.4764 13.231 20.6043 13.7244 20.6043 14.2796C20.6043 14.3207 20.6043 14.3618 20.6043 14.4235C20.583 15.0403 20.4551 15.5749 20.2208 16.0272C19.4111 17.5899 17.4508 18.1656 15.4479 18.1656C14.7234 18.1656 14.0416 18.0628 13.3171 17.96V10.9076ZM13.3171 36.7937V23.3675C13.3171 23.3675 23.1186 22.2366 23.1186 29.3713C23.0973 35.8068 18.3457 36.5676 13.3171 36.7937Z" fill="url(#paint0_linear)"/>
</g>
<line x1="36.751" y1="6.10021e-08" x2="36.751" y2="46.519" stroke="#0C1826" stroke-width="2.79114"/>
<defs>
<linearGradient id="paint0_linear" x1="16.1494" y1="42.2736" x2="10.7697" y2="4.71711" gradientUnits="userSpaceOnUse">
<stop stop-color="#C73967"/>
<stop offset="0.4208" stop-color="#FA6164"/>
<stop offset="1" stop-color="#FDD422"/>
</linearGradient>
<clipPath id="clip0">
<rect width="147" height="37.2152" fill="white" transform="translate(0 5.58203)"/>
</clipPath>
</defs>
</svg>
